<svg xmlns="http://www.w3.org/2000/svg" viewBox="0 0 800 600" preserveAspectRatio="xMidYMid slice">
  <defs>
    <linearGradient id="pbg" x1="0" y1="0" x2="1" y2="1">
      <stop offset="0%" stop-color="#1f2228"/>
      <stop offset="100%" stop-color="#0a0c10"/>
    </linearGradient>
    <pattern id="pgrid" width="40" height="40" patternUnits="userSpaceOnUse">
      <path d="M40 0L0 0 0 40" fill="none" stroke="#2a2e36" stroke-width="1"/>
    </pattern>
  </defs>
  <rect width="800" height="600" fill="url(#pbg)"/>
  <rect width="800" height="600" fill="url(#pgrid)" opacity="0.5"/>
  <g transform="translate(400 280)" fill="none" stroke="#ff6a00" stroke-width="2.5" opacity="0.65" stroke-linejoin="round" stroke-linecap="round">
    <path d="M-80 -45 L-55 -45 L-45 -60 L45 -60 L55 -45 L80 -45 Q90 -45 90 -35 L90 35 Q90 45 80 45 L-80 45 Q-90 45 -90 35 L-90 -35 Q-90 -45 -80 -45 Z"/>
    <circle r="22"/>
    <circle r="11"/>
    <circle cx="65" cy="-25" r="3" fill="#ff6a00"/>
  </g>
  <text x="400" y="430" text-anchor="middle" fill="#888" font-family="monospace" font-size="14" letter-spacing="4" font-weight="600">PHOTO / 照片占位</text>
  <text x="400" y="460" text-anchor="middle" fill="#555" font-family="monospace" font-size="10" letter-spacing="2">REPLACE_WITH_YOUR_IMAGE</text>
  <text x="24" y="32" fill="#3a3f48" font-family="monospace" font-size="11" letter-spacing="1.5">SYS://PLACEHOLDER</text>
  <text x="776" y="32" text-anchor="end" fill="#3a3f48" font-family="monospace" font-size="11" letter-spacing="1.5">800x600</text>
</svg>
